<svg xmlns="http://www.w3.org/2000/svg" xmlns:xlink="http://www.w3.org/1999/xlink" version="1.1" x="0px" y="0px" xml:space="preserve">

<!-- <?xml version="1.0" encoding="utf-8"?>

	 <svg xmlns="http://www.w3.org/2000/svg" xmlns:xlink="http://www.w3.org/1999/xlink" version="1.1" x="0px" y="0px" xml:space="preserve">
	 <g>
	<path d="M508.8,375.8c-0.7,0-1.3-0.2-1.9-0.7c-0.5-0.5-0.8-1.1-0.8-1.9c0-0.4,0-0.8-0.1-1.2c-0.1-0.8-0.3-1.8-0.5-3.2
		c-0.8-3.4-2.3-6.1-4.5-8.3c-3.4-3.5-8.4-5.2-14.9-5.2c-4.7,0-8.4,0.8-11.1,2.5c-2.7,1.7-4.7,3.9-6.1,6.6c-1.4,2.7-2.2,5.8-2.6,9.2
		c-0.4,3.4-0.5,6.8-0.5,10.3c0,1.2,0,2.5,0,4c0,1.5,0.1,3,0.3,4.7c0.2,1.6,0.4,3.3,0.8,4.9c0.4,1.7,0.9,3.3,1.5,4.8
		c3,6.8,8.8,10.1,17.6,10.1c8.5,0,14.4-3,17.6-9.1c0.6-1.1,1.1-2.3,1.4-3.4c0.4-1.1,0.6-2.1,0.8-3c0.1-0.9,0.3-1.8,0.3-2.9
		c0-0.7,0.3-1.3,0.8-1.8c0.5-0.5,1.2-0.7,1.9-0.7s1.3,0.2,1.8,0.7c0.5,0.5,0.7,1.1,0.7,1.8c0,0.1,0,0.4,0,1.1c0,0.7-0.1,1.6-0.4,2.7
		c-0.2,1.1-0.5,2.3-0.9,3.7c-0.4,1.4-1,2.8-1.8,4.2c-0.7,1.4-1.7,2.7-2.8,4.1c-1.2,1.4-2.7,2.6-4.4,3.8s-3.9,2.1-6.3,2.8
		c-2.4,0.7-5.3,1.1-8.5,1.1c-5.9,0-10.7-1.2-14.5-3.7c-3.3-2.3-5.9-5.5-7.8-9.5c-0.8-1.8-1.3-3.6-1.7-5.5s-0.7-3.7-0.9-5.5
		c-0.2-1.8-0.3-3.5-0.4-5.2c0-1.6,0-3.1,0-4.3c0-1.4,0-2.9,0-4.5c0-1.7,0.1-3.4,0.3-5.2c0.2-1.8,0.5-3.6,0.9-5.4
		c0.4-1.8,1-3.6,1.7-5.3c0.9-2.1,2-3.9,3.3-5.4c1.3-1.5,2.8-2.9,4.4-4.1c3.8-2.5,8.6-3.7,14.6-3.7c7.9,0,14.2,2.3,18.7,6.8
		c1.6,1.7,2.8,3.4,3.7,5.2c0.9,1.8,1.5,3.6,2,5.2c0.4,1.6,0.7,2.9,0.8,4c0.1,1.1,0.1,1.7,0.1,1.9v0.1c0,0.7-0.2,1.3-0.7,1.8
		C510.1,375.6,509.5,375.8,508.8,375.8z"/>
	<path d="M574.6,413.6c0.3,0.7,0.3,1.3,0,2c-0.3,0.7-0.8,1.1-1.4,1.4c-0.7,0.3-1.3,0.3-1.9,0s-1.1-0.7-1.4-1.4l-22.8-55.9l-23,55.9
		c-0.6,1-1.4,1.5-2.4,1.5c-0.4,0-0.7-0.1-1-0.2c-0.7-0.3-1.1-0.8-1.4-1.4c-0.3-0.7-0.3-1.3,0-2l25.5-61.6c0.4-1,1.2-1.5,2.3-1.5
		c1.1,0,1.9,0.5,2.3,1.5L574.6,413.6z"/>
	<path d="M556.1,399.2h-18.1c-0.7,0-1.3-0.3-1.8-0.8c-0.5-0.5-0.8-1.1-0.8-1.8s0.3-1.3,0.8-1.8c0.5-0.5,1.1-0.8,1.8-0.8h18.1
		c0.7,0,1.3,0.3,1.8,0.8c0.5,0.5,0.8,1.1,0.8,1.8s-0.3,1.3-0.8,1.8C557.4,398.9,556.8,399.2,556.1,399.2z"/>
	<path d="M600.9,417.1c-0.8,0-1.4-0.3-1.8-0.8c-0.5-0.5-0.7-1.1-0.7-1.8v-52.7c0-0.7,0.2-1.2,0.7-1.7c0.5-0.5,1.1-0.8,1.8-0.8
		c0.7,0,1.3,0.3,1.8,0.8c0.5,0.5,0.7,1.1,0.7,1.7v52.7c0,0.7-0.2,1.3-0.7,1.8C602.2,416.9,601.6,417.1,600.9,417.1z"/>
	<path d="M622.1,355.6H580c-0.7,0-1.3-0.3-1.8-0.8c-0.5-0.5-0.8-1.1-0.8-1.8c0-0.7,0.3-1.3,0.8-1.9c0.5-0.5,1.1-0.8,1.8-0.8h42.1
		c0.7,0,1.3,0.3,1.8,0.8c0.5,0.5,0.8,1.1,0.8,1.9c0,0.7-0.3,1.3-0.8,1.8C623.4,355.4,622.8,355.6,622.1,355.6z"/>
	<path d="M686.2,413.6c0.3,0.7,0.3,1.3,0,2c-0.3,0.7-0.8,1.1-1.4,1.4c-0.7,0.3-1.3,0.3-1.9,0s-1.1-0.7-1.4-1.4l-22.8-55.9l-23,55.9
		c-0.6,1-1.4,1.5-2.4,1.5c-0.4,0-0.7-0.1-1-0.2c-0.7-0.3-1.1-0.8-1.4-1.4c-0.3-0.7-0.3-1.3,0-2l25.5-61.6c0.4-1,1.2-1.5,2.3-1.5
		c1.1,0,1.9,0.5,2.3,1.5L686.2,413.6z"/>
	<path d="M667.6,399.2h-18.1c-0.7,0-1.3-0.3-1.8-0.8c-0.5-0.5-0.8-1.1-0.8-1.8s0.3-1.3,0.8-1.8c0.5-0.5,1.1-0.8,1.8-0.8h18.1
		c0.7,0,1.3,0.3,1.8,0.8c0.5,0.5,0.8,1.1,0.8,1.8s-0.3,1.3-0.8,1.8C668.9,398.9,668.3,399.2,667.6,399.2z"/>
	<path d="M709.1,409.4c-0.7,0-1.3-0.2-1.8-0.7c-0.5-0.5-0.8-1.1-0.8-1.8v-53.9c0-0.7,0.3-1.3,0.8-1.8c0.5-0.5,1.1-0.8,1.8-0.8
		s1.3,0.3,1.8,0.8c0.5,0.5,0.7,1.1,0.7,1.8v53.9c0,0.7-0.2,1.3-0.7,1.8C710.4,409.2,709.8,409.4,709.1,409.4z"/>
	<path d="M742.9,417.1h-33.8c-0.7,0-1.3-0.3-1.8-0.8c-0.5-0.5-0.8-1.1-0.8-1.9c0-0.7,0.3-1.3,0.8-1.8c0.5-0.5,1.1-0.7,1.8-0.7h33.8
		c0.7,0,1.2,0.2,1.8,0.7c0.5,0.5,0.8,1.1,0.8,1.8c0,0.7-0.3,1.3-0.8,1.9C744.1,416.9,743.5,417.1,742.9,417.1z"/>
	<path d="M775.4,417.1c-0.7,0-1.3-0.3-1.8-0.8c-0.5-0.5-0.7-1.1-0.7-1.7v-30.1l-5.1-7.4c-0.4-0.6-0.5-1.2-0.4-1.9
		c0.1-0.7,0.5-1.2,1-1.6c0.7-0.5,1.3-0.6,2-0.5c0.7,0.1,1.2,0.5,1.6,1.1l3.4,5l19-27.7c0.4-0.5,1-0.9,1.6-1c0.7-0.1,1.3,0,1.9,0.4
		c0.6,0.4,1,1,1.1,1.6c0.1,0.7,0,1.3-0.4,1.9l-20.7,30v30.1c0,0.7-0.2,1.2-0.7,1.7C776.8,416.9,776.2,417.1,775.4,417.1z"/>
	<path d="M764,369.6c-0.9,0-1.6-0.4-2.1-1.1l-9.6-14c-0.5-0.6-0.6-1.2-0.5-1.9c0.1-0.7,0.5-1.2,1-1.6c0.7-0.4,1.3-0.5,2-0.4
		c0.7,0.1,1.2,0.5,1.7,1l9.6,14c0.4,0.6,0.6,1.2,0.4,1.9c-0.1,0.7-0.5,1.2-1.1,1.6C765,369.5,764.5,369.6,764,369.6z"/>
	<path d="M852,368.2c0,0.7-0.2,1.3-0.7,1.8c-0.5,0.5-1.1,0.8-1.7,0.8c-0.7,0-1.3-0.2-1.8-0.7c-0.5-0.5-0.7-1.1-0.7-1.8H847h0.1
		c-0.1-0.8-0.2-1.5-0.3-2.2c-0.1-0.6-0.3-1.3-0.6-2.1c-0.2-0.8-0.6-1.6-1.1-2.4c-2.4-4.2-6.5-6.3-12.5-6.3c-3,0-5.4,0.4-7.2,1.2
		c-1.8,0.8-3.3,1.8-4.3,3.1s-1.8,2.6-2.1,4.2c-0.4,1.5-0.6,3-0.6,4.4c0,1.3,0.1,2.7,0.4,4c0.3,1.4,0.8,2.7,1.6,3.9
		c0.8,1.2,1.9,2.3,3.3,3.2c1.4,0.9,3.3,1.5,5.6,1.8c0.7,0.1,1.2,0.5,1.6,1c0.4,0.6,0.6,1.2,0.5,1.8c-0.1,0.7-0.4,1.2-0.8,1.6
		c-0.4,0.4-1,0.6-1.6,0.6c-0.2,0-0.3,0-0.4-0.1c-3.6-0.4-6.5-1.4-8.8-3.2c-2.1-1.5-3.7-3.4-4.7-5.7c-0.5-0.9-0.8-1.9-1.1-2.8
		c-0.3-0.9-0.5-1.8-0.6-2.6c-0.1-0.8-0.2-1.5-0.2-2.1c0-0.6,0-1.1,0-1.5c0-0.3,0-0.8,0-1.5c0-0.7,0.1-1.5,0.2-2.4
		c0.2-1.1,0.5-2.2,0.8-3.2c0.3-1,0.8-2,1.4-2.9c1.4-2.3,3.4-4.2,6-5.7c1.4-0.7,3-1.3,4.9-1.7c1.8-0.4,3.8-0.6,5.9-0.6
		c2.5,0,4.6,0.3,6.5,0.8c1.8,0.6,3.4,1.3,4.8,2.1c1.4,0.9,2.5,1.8,3.4,2.9s1.7,2.1,2.3,3.1c1.1,2.1,1.8,4,2.1,5.7
		C851.9,366.6,852,367.7,852,368.2L852,368.2z"/>
	<path d="M850.4,391c0.8,1.9,1.3,3.7,1.4,5.4c0.1,1.7,0.2,2.9,0.2,3.6c0,0.8-0.1,2.2-0.3,4c-0.2,1.8-0.9,3.8-2.1,5.8
		c-0.8,1.2-1.7,2.2-2.7,3.1c-1,0.9-2.2,1.7-3.5,2.3c-1.4,0.7-3,1.2-4.8,1.6c-1.8,0.4-3.8,0.6-5.9,0.6c-2.5,0-4.7-0.3-6.5-0.8
		c-1.9-0.5-3.5-1.2-4.8-2c-1.4-0.8-2.5-1.7-3.4-2.8c-0.9-1-1.6-2-2.2-3c-0.6-1.1-1-2.1-1.4-3.2c-0.3-1-0.6-2-0.8-2.8
		c-0.2-0.8-0.3-1.5-0.3-2c0-0.5,0-0.8,0-0.8c0-0.7,0.2-1.3,0.7-1.9c0.5-0.5,1.1-0.8,1.8-0.8c0.6,0,1.2,0.3,1.7,0.8
		c0.5,0.5,0.8,1.1,0.8,1.9c0,0.1,0.1,0.7,0.2,2c0.1,1.3,0.7,2.7,1.6,4.2c2.4,4,6.6,6,12.6,6c9.5,0,14.3-4.1,14.3-12.3
		c0-7.6-3.3-12.1-10-13.3c-0.7-0.1-1.3-0.5-1.6-1.1c-0.4-0.6-0.5-1.2-0.3-2c0.1-0.7,0.5-1.2,1-1.6c0.6-0.4,1.2-0.5,2-0.4
		c3.2,0.5,5.9,1.7,8,3.6C848,386.8,849.4,388.7,850.4,391z"/>
	<path d="M902.2,355.6h-42.1c-0.7,0-1.3-0.3-1.8-0.8c-0.5-0.5-0.8-1.1-0.8-1.8c0-0.7,0.3-1.3,0.8-1.9c0.5-0.5,1.1-0.8,1.8-0.8h42.1
		c0.7,0,1.3,0.3,1.8,0.8c0.5,0.5,0.8,1.1,0.8,1.9c0,0.7-0.3,1.3-0.8,1.8C903.6,355.4,903,355.6,902.2,355.6z"/>
	<path d="M881,417.1c-0.8,0-1.4-0.3-1.8-0.8c-0.5-0.5-0.7-1.1-0.7-1.8v-52.7c0-0.7,0.2-1.2,0.7-1.7c0.5-0.5,1.1-0.8,1.8-0.8
		c0.7,0,1.3,0.3,1.8,0.8c0.5,0.5,0.7,1.1,0.7,1.7v52.7c0,0.7-0.2,1.3-0.7,1.8C882.3,416.9,881.7,417.1,881,417.1z"/>
	
</g>
  <g>
    <path d="M 100, 100 m -75, 0 a 75,75 0 1,0 150,0 a 75,75 0 1,0 -150,0"/>
</g>
<g>
	<path d="M10 10 H 90 V 90 H 10 L 10 10"/>
</g>

</svg>
 -->
<!-- <svg> -->
<!-- 	<path d="M197.1,233.6c-1.3,0-2.4-0.4-3.4-1.3c-1-0.9-1.4-2-1.4-3.4c0-0.6-0.1-1.4-0.2-2.2c-0.2-1.4-0.5-3.3-1-5.8
		c-1.5-6.1-4.2-11-8.2-14.9c-6.2-6.3-15.1-9.4-26.9-9.4c-8.4,0-15.1,1.5-19.9,4.5c-4.9,3-8.5,6.9-11,11.8c-2.5,4.9-4,10.4-4.6,16.6
		c-0.6,6.1-1,12.3-1,18.5c0,2.1,0,4.5,0.1,7.2c0.1,2.7,0.2,5.5,0.6,8.4c0.3,2.9,0.8,5.9,1.4,8.9c0.6,3,1.5,5.9,2.7,8.6
		c5.3,12.2,15.9,18.2,31.7,18.2c15.4,0,25.9-5.4,31.7-16.3c1.1-2,1.9-4.1,2.6-6.1c0.6-2,1.1-3.8,1.4-5.4c0.3-1.5,0.5-3.3,0.6-5.2
		c0-1.3,0.5-2.3,1.4-3.2c1-0.9,2.1-1.3,3.4-1.3c1.3,0,2.3,0.4,3.2,1.3c0.9,0.9,1.3,1.9,1.3,3.2c0,0.1,0,0.8-0.1,2
		c-0.1,1.2-0.3,2.8-0.6,4.8c-0.4,2-0.9,4.2-1.7,6.7c-0.7,2.5-1.8,5-3.2,7.6c-1.3,2.5-3,4.9-5.1,7.4c-2.1,2.5-4.8,4.7-8,6.8
		c-3.2,2.1-7,3.8-11.4,5c-4.4,1.3-9.5,1.9-15.4,1.9c-10.6,0-19.3-2.2-26.1-6.7c-5.9-4.2-10.5-9.9-14-17.1c-1.4-3.2-2.4-6.5-3.1-9.8
		s-1.3-6.7-1.6-9.9c-0.4-3.3-0.6-6.3-0.6-9.3c-0.1-2.9-0.1-5.5-0.1-7.8c0-2.5,0-5.2,0.1-8.2c0.1-3,0.2-6.1,0.5-9.3
		c0.3-3.2,0.8-6.5,1.6-9.8c0.7-3.3,1.8-6.5,3.1-9.6c1.7-3.7,3.7-7,6-9.8c2.3-2.8,5-5.2,8-7.4c6.8-4.5,15.6-6.7,26.2-6.7
		c14.3,0,25.5,4.1,33.6,12.2c2.9,3,5.1,6.1,6.7,9.4c1.6,3.3,2.8,6.4,3.5,9.3c0.7,2.9,1.2,5.3,1.4,7.3c0.2,2,0.2,3.1,0.2,3.4v0.2
		c0,1.3-0.4,2.3-1.3,3.2C199.4,233.2,198.4,233.6,197.1,233.6z"/>
	<path d="M315.6,301.6c0.5,1.2,0.5,2.3,0,3.5c-0.5,1.2-1.4,2-2.6,2.6c-1.2,0.5-2.3,0.6-3.4,0.1c-1.1-0.5-1.9-1.3-2.5-2.5L266,204.6
		l-41.4,100.6c-1.1,1.8-2.5,2.7-4.3,2.7c-0.7,0-1.3-0.1-1.8-0.3c-1.2-0.5-2-1.4-2.6-2.6c-0.5-1.2-0.5-2.3,0-3.5l45.9-110.9
		c0.7-1.8,2.1-2.7,4.2-2.7c2,0,3.4,0.9,4.2,2.7L315.6,301.6z M282.2,275.7h-32.6c-1.3,0-2.4-0.5-3.3-1.4c-0.9-0.9-1.4-2-1.4-3.3
		c0-1.3,0.5-2.4,1.4-3.3c0.9-0.9,2-1.4,3.3-1.4h32.6c1.3,0,2.4,0.5,3.3,1.4c0.9,0.9,1.4,2,1.4,3.3c0,1.3-0.5,2.4-1.4,3.3
		C284.6,275.2,283.5,275.7,282.2,275.7z"/>
	<path d="M401.1,197.3h-75.8c-1.3,0-2.4-0.5-3.3-1.4c-0.9-0.9-1.4-2-1.4-3.2c0-1.3,0.5-2.4,1.4-3.3c0.9-0.9,2-1.4,3.3-1.4h75.8
		c1.3,0,2.4,0.5,3.3,1.4c0.9,0.9,1.4,2,1.4,3.3c0,1.2-0.5,2.3-1.4,3.2C403.4,196.8,402.4,197.3,401.1,197.3z M362.9,308
		c-1.4,0-2.5-0.5-3.3-1.4c-0.8-0.9-1.3-2-1.3-3.3v-94.9c0-1.2,0.4-2.2,1.3-3.1c0.8-0.9,1.9-1.4,3.3-1.4c1.3,0,2.3,0.5,3.2,1.4
		c0.9,0.9,1.3,1.9,1.3,3.1v94.9c0,1.3-0.4,2.4-1.3,3.3C365.2,307.5,364.2,308,362.9,308z"/>
	<path d="M516.4,301.6c0.5,1.2,0.5,2.3,0,3.5c-0.5,1.2-1.4,2-2.6,2.6c-1.2,0.5-2.3,0.6-3.4,0.1c-1.1-0.5-1.9-1.3-2.5-2.5
		l-41.1-100.6l-41.4,100.6c-1.1,1.8-2.5,2.7-4.3,2.7c-0.7,0-1.3-0.1-1.8-0.3c-1.2-0.5-2-1.4-2.6-2.6c-0.5-1.2-0.5-2.3,0-3.5
		l45.9-110.9c0.7-1.8,2.1-2.7,4.2-2.7c2,0,3.4,0.9,4.2,2.7L516.4,301.6z M483,275.7h-32.6c-1.3,0-2.4-0.5-3.3-1.4
		c-0.9-0.9-1.4-2-1.4-3.3c0-1.3,0.5-2.4,1.4-3.3c0.9-0.9,2-1.4,3.3-1.4H483c1.3,0,2.4,0.5,3.3,1.4c0.9,0.9,1.4,2,1.4,3.3
		c0,1.3-0.5,2.4-1.4,3.3C485.4,275.2,484.3,275.7,483,275.7z"/>
	<path d="M557.7,294.1c-1.3,0-2.4-0.4-3.3-1.3c-0.9-0.9-1.4-1.9-1.4-3.2v-97c0-1.3,0.5-2.4,1.4-3.3c0.9-0.9,2-1.4,3.3-1.4
		c1.3,0,2.3,0.5,3.2,1.4c0.9,0.9,1.3,2,1.3,3.3v97c0,1.3-0.4,2.3-1.3,3.2C560.1,293.7,559,294.1,557.7,294.1z M618.5,308h-60.8
		c-1.3,0-2.4-0.5-3.3-1.4c-0.9-0.9-1.4-2-1.4-3.3c0-1.3,0.5-2.4,1.4-3.3c0.9-0.9,2-1.3,3.3-1.3h60.8c1.2,0,2.2,0.4,3.2,1.3
		c1,0.9,1.4,2,1.4,3.3c0,1.3-0.5,2.4-1.4,3.3C620.8,307.5,619.7,308,618.5,308z"/>
	<path d="M656.6,222.4c-1.6,0-2.9-0.6-3.8-1.9l-17.3-25.3c-0.9-1.1-1.1-2.2-0.9-3.4c0.3-1.2,0.9-2.2,1.8-3c1.2-0.7,2.3-1,3.5-0.7
		c1.2,0.3,2.2,0.9,3,1.8l17.3,25.3c0.7,1.1,1,2.2,0.8,3.4c-0.2,1.2-0.9,2.2-1.9,3C658.3,222.1,657.4,222.4,656.6,222.4z M677.1,308
		c-1.3,0-2.3-0.5-3.2-1.4c-0.9-0.9-1.3-1.9-1.3-3.1v-54.2l-9.1-13.3c-0.7-1.1-1-2.2-0.7-3.4c0.3-1.2,0.9-2.1,1.8-2.9
		c1.2-0.9,2.3-1.1,3.5-0.9c1.2,0.3,2.1,0.9,2.9,2l6.1,9l34.2-49.9c0.7-1,1.7-1.6,3-1.8c1.2-0.3,2.4,0,3.4,0.7c1.1,0.7,1.7,1.7,2,3
		c0.3,1.2,0,2.4-0.7,3.4l-37.3,54.1v54.2c0,1.2-0.4,2.2-1.3,3.1C679.6,307.5,678.5,308,677.1,308z"/>
	<path d="M796.8,219.8c0,1.3-0.4,2.4-1.3,3.3c-0.9,0.9-1.9,1.4-3.1,1.4c-1.3,0-2.3-0.4-3.2-1.3c-0.9-0.8-1.3-1.9-1.3-3.2h-0.2h0.2
		c-0.1-1.5-0.3-2.8-0.6-3.9c-0.3-1.1-0.6-2.4-1-3.7c-0.4-1.4-1.1-2.8-1.9-4.3c-4.3-7.5-11.8-11.3-22.5-11.3c-5.4,0-9.7,0.7-13,2.2
		c-3.3,1.4-5.9,3.3-7.8,5.5c-1.9,2.2-3.2,4.7-3.9,7.5c-0.7,2.8-1,5.4-1,8c0,2.3,0.3,4.8,0.8,7.3c0.5,2.5,1.5,4.9,3,7
		c1.4,2.2,3.4,4.1,6,5.7c2.6,1.6,5.9,2.7,10.1,3.2c1.2,0.2,2.2,0.8,3,1.8c0.8,1,1.1,2.1,0.9,3.3c-0.2,1.2-0.7,2.1-1.5,2.9
		c-0.8,0.7-1.8,1.1-3,1.1c-0.3,0-0.5-0.1-0.6-0.2c-6.4-0.6-11.7-2.6-15.8-5.8c-3.8-2.8-6.6-6.2-8.4-10.2c-0.8-1.7-1.5-3.4-2-5
		c-0.5-1.7-0.8-3.2-1-4.6c-0.2-1.4-0.3-2.7-0.4-3.8c-0.1-1.1-0.1-2-0.1-2.6c0-0.5,0-1.4,0.1-2.6c0.1-1.2,0.2-2.6,0.4-4.2
		c0.4-2,0.9-3.9,1.5-5.8c0.6-1.8,1.4-3.6,2.5-5.3c2.4-4.2,6.1-7.6,10.9-10.3c2.6-1.3,5.5-2.3,8.8-3.1c3.3-0.8,6.9-1.1,10.7-1.1
		c4.5,0,8.4,0.5,11.7,1.5c3.3,1,6.2,2.3,8.6,3.8c2.4,1.5,4.5,3.3,6.1,5.2c1.6,1.9,3,3.8,4.1,5.6c2,3.7,3.3,7.1,3.8,10.2
		c0.5,3.1,0.7,5,0.7,5.8V219.8z M793.8,261c1.5,3.4,2.3,6.6,2.6,9.7c0.3,3,0.4,5.2,0.4,6.5c0,1.5-0.2,3.9-0.6,7.2
		c-0.4,3.3-1.6,6.8-3.8,10.4c-1.4,2.1-3,4-4.9,5.6s-4,3-6.3,4.2c-2.4,1.2-5.3,2.1-8.6,2.9c-3.3,0.7-6.9,1.1-10.7,1.1
		c-4.5,0-8.4-0.5-11.7-1.4s-6.3-2.2-8.7-3.7c-2.4-1.5-4.5-3.1-6.1-5c-1.6-1.8-3-3.6-3.9-5.4c-1.1-1.9-1.9-3.8-2.5-5.7
		c-0.6-1.9-1-3.5-1.4-5c-0.3-1.4-0.5-2.6-0.6-3.5c-0.1-0.9-0.1-1.4-0.1-1.5c0-1.3,0.4-2.4,1.3-3.4c0.9-1,2-1.4,3.2-1.4
		c1.2,0,2.2,0.5,3.1,1.4c0.9,1,1.4,2.1,1.4,3.3c0,0.1,0.1,1.3,0.4,3.6c0.3,2.3,1.2,4.8,2.8,7.6c4.3,7.2,11.8,10.8,22.6,10.8
		c17.1,0,25.7-7.4,25.7-22.1c0-13.8-6-21.8-17.9-24c-1.3-0.2-2.3-0.9-3-1.9c-0.7-1.1-0.9-2.2-0.6-3.5c0.2-1.3,0.8-2.2,1.8-2.9
		c1-0.6,2.2-0.9,3.6-0.6c5.8,1,10.6,3.1,14.4,6.6C789.4,253.4,792,256.8,793.8,261z"/>
	<path d="M887.2,197.3h-75.8c-1.3,0-2.4-0.5-3.3-1.4c-0.9-0.9-1.4-2-1.4-3.2c0-1.3,0.5-2.4,1.4-3.3c0.9-0.9,2-1.4,3.3-1.4h75.8
		c1.3,0,2.4,0.5,3.3,1.4c0.9,0.9,1.4,2,1.4,3.3c0,1.2-0.5,2.3-1.4,3.2C889.5,196.8,888.4,197.3,887.2,197.3z M849,308
		c-1.4,0-2.5-0.5-3.3-1.4c-0.8-0.9-1.3-2-1.3-3.3v-94.9c0-1.2,0.4-2.2,1.3-3.1c0.8-0.9,1.9-1.4,3.3-1.4c1.3,0,2.3,0.5,3.2,1.4
		c0.9,0.9,1.3,1.9,1.3,3.1v94.9c0,1.3-0.4,2.4-1.3,3.3C851.3,307.5,850.2,308,849,308z"/> -->
			<!-- <path d="M197.1,233.6c-1.3,0-2.4-0.4-3.4-1.3c-1-0.9-1.4-2-1.4-3.4c0-0.6-0.1-1.4-0.2-2.2c-0.2-1.4-0.5-3.3-1-5.8
		c-1.5-6.1-4.2-11-8.2-14.9c-6.2-6.3-15.1-9.4-26.9-9.4c-8.4,0-15.1,1.5-19.9,4.5c-4.9,3-8.5,6.9-11,11.8c-2.5,4.9-4,10.4-4.6,16.6
		c-0.6,6.1-1,12.3-1,18.5c0,2.1,0,4.5,0.1,7.2c0.1,2.7,0.2,5.5,0.6,8.4c0.3,2.9,0.8,5.9,1.4,8.9c0.6,3,1.5,5.9,2.7,8.6
		c5.3,12.2,15.9,18.2,31.7,18.2c15.4,0,25.9-5.4,31.7-16.3c1.1-2,1.9-4.1,2.6-6.1c0.6-2,1.1-3.8,1.4-5.4c0.3-1.5,0.5-3.3,0.6-5.2
		c0-1.3,0.5-2.3,1.4-3.2c1-0.9,2.1-1.3,3.4-1.3c1.3,0,2.3,0.4,3.2,1.3c0.9,0.9,1.3,1.9,1.3,3.2c0,0.1,0,0.8-0.1,2
		c-0.1,1.2-0.3,2.8-0.6,4.8c-0.4,2-0.9,4.2-1.7,6.7c-0.7,2.5-1.8,5-3.2,7.6c-1.3,2.5-3,4.9-5.1,7.4c-2.1,2.5-4.8,4.7-8,6.8
		c-3.2,2.1-7,3.8-11.4,5c-4.4,1.3-9.5,1.9-15.4,1.9c-10.6,0-19.3-2.2-26.1-6.7c-5.9-4.2-10.5-9.9-14-17.1c-1.4-3.2-2.4-6.5-3.1-9.8
		s-1.3-6.7-1.6-9.9c-0.4-3.3-0.6-6.3-0.6-9.3c-0.1-2.9-0.1-5.5-0.1-7.8c0-2.5,0-5.2,0.1-8.2c0.1-3,0.2-6.1,0.5-9.3
		c0.3-3.2,0.8-6.5,1.6-9.8c0.7-3.3,1.8-6.5,3.1-9.6c1.7-3.7,3.7-7,6-9.8c2.3-2.8,5-5.2,8-7.4c6.8-4.5,15.6-6.7,26.2-6.7
		c14.3,0,25.5,4.1,33.6,12.2c2.9,3,5.1,6.1,6.7,9.4c1.6,3.3,2.8,6.4,3.5,9.3c0.7,2.9,1.2,5.3,1.4,7.3c0.2,2,0.2,3.1,0.2,3.4v0.2
		c0,1.3-0.4,2.3-1.3,3.2C199.4,233.2,198.4,233.6,197.1,233.6z"/> -->
	<path d="M284,127.4l-9.1,7c-5-6.5-11-11.4-18-14.8c-7-3.4-14.7-5-23.1-5c-9.2,0-17.7,2.2-25.5,6.6c-7.8,4.4-13.9,10.3-18.2,17.7
		s-6.4,15.8-6.4,25c0,14,4.8,25.7,14.4,35.1s21.7,14.1,36.4,14.1c16.1,0,29.6-6.3,40.4-18.9l9.1,6.9c-5.7,7.3-12.9,12.9-21.4,16.9
		c-8.6,4-18.1,6-28.7,6c-20.1,0-36-6.7-47.6-20.1c-9.7-11.3-14.6-24.9-14.6-40.9c0-16.8,5.9-31,17.7-42.5s26.6-17.2,44.3-17.2
		c10.7,0,20.4,2.1,29.1,6.4C271.4,113.8,278.5,119.8,284,127.4z"/>
	<path d="M354,106.1L407.6,221h-12.4l-18.1-37.8h-49.5L309.7,221h-12.8l54.3-114.9H354z M352.6,130.5l-19.7,41.6h39.3L352.6,130.5z"
		/>
	<path d="M414,117.3v-11.3h63v11.3h-25.6V221h-11.7V117.3H414z"/>
	<path d="M540.5,106.1L594.1,221h-12.4l-18.1-37.8h-49.5L496.2,221h-12.8l54.3-114.9H540.5z M539,130.5l-19.7,41.6h39.3L539,130.5z"
		/>
	<path d="M611.9,106.1h11.5v103.8h44.2V221h-55.7V106.1z"/>
	<path d="M676.8,106.1H690l29.4,47.4l28.9-47.4h13.3l-36.4,60V221h-11.3v-54.9L676.8,106.1z"/>
	<path d="M768.6,199.6l9.8-5.9c6.9,12.7,14.8,19,23.8,19c3.9,0,7.5-0.9,10.9-2.7c3.4-1.8,6-4.2,7.7-7.2c1.8-3,2.7-6.2,2.7-9.6
		c0-3.9-1.3-7.6-3.9-11.3c-3.6-5.1-10.2-11.3-19.7-18.4c-9.6-7.2-15.5-12.5-17.9-15.7c-4.1-5.4-6.1-11.3-6.1-17.6
		c0-5,1.2-9.6,3.6-13.7c2.4-4.1,5.8-7.4,10.1-9.7c4.3-2.4,9.1-3.6,14.2-3.6c5.4,0,10.5,1.3,15.2,4c4.7,2.7,9.7,7.6,15,14.8l-9.4,7.1
		c-4.3-5.7-8-9.5-11.1-11.3c-3-1.8-6.4-2.7-10-2.7c-4.6,0-8.4,1.4-11.4,4.2c-2.9,2.8-4.4,6.3-4.4,10.4c0,2.5,0.5,4.9,1.6,7.3
		c1,2.3,2.9,4.9,5.7,7.7c1.5,1.5,6.5,5.3,14.8,11.5c9.9,7.3,16.8,13.9,20.5,19.6c3.7,5.7,5.5,11.5,5.5,17.3c0,8.3-3.2,15.6-9.5,21.7
		c-6.3,6.1-14,9.2-23.1,9.2c-7,0-13.3-1.9-19-5.6C778.7,214.6,773.4,208.3,768.6,199.6z"/>
	<path d="M848.8,117.3v-11.3h63v11.3h-25.6V221h-11.7V117.3H848.8z"/>
	</svg>